<svg xmlns="http://www.w3.org/2000/svg"><defs><symbol viewBox="0 0 80 80.1" id="icon-_icc_abstract_shape_mark_connection"><path d="M20 20C9 20 0 29 0 40s9 20 20 20 20-9 20-20-9-20-20-20Zm0 33.3c-7.4 0-13.3-6-13.3-13.3s6-13.3 13.3-13.3 13.3 6 13.3 13.3S27.4 53.3 20 53.3Z" fill="#007dff"/><path d="M59.6 56.7c-2.8 0-5.3 1-7.3 2.7L37.9 48.9c-1 2-2.3 3.8-3.9 5.4l14.5 10.6c-.4 1.1-.6 2.3-.6 3.5 0 6.4 5.2 11.7 11.7 11.7s11.7-5.2 11.7-11.7c0-6.5-5.3-11.7-11.7-11.7Zm0 16.6c-2.8 0-5-2.2-5-5s2.2-5 5-5 5 2.2 5 5-2.3 5-5 5Zm8.7-45c-5.3 0-9.7 3.5-11.1 8.3H39.7c.2 1.1.3 2.2.3 3.3s-.1 2.2-.3 3.3h17.5c1.4 4.8 5.8 8.3 11.1 8.3C74.8 51.7 80 46.4 80 40s-5.2-11.7-11.7-11.7Zm0 16.7c-2.8 0-5-2.2-5-5s2.2-5 5-5 5 2.2 5 5-2.2 5-5 5ZM59.6 0c-6.4 0-11.7 5.2-11.7 11.7 0 1.2.2 2.4.6 3.5L34 25.7c1.6 1.6 2.9 3.4 3.9 5.4l14.4-10.4c2 1.6 4.5 2.7 7.3 2.7 6.4 0 11.7-5.2 11.7-11.7S66 0 59.6 0Zm0 16.7c-2.8 0-5-2.2-5-5s2.2-5 5-5 5 2.2 5 5-2.3 5-5 5Z"/></symbol><symbol viewBox="0 0 80 66.7" id="icon-_icc_boat_cruise_shipping_transportation_cargo_ship_delivery"><path d="M68.5 54.7c3.2-9 4.8-18.4 4.8-28.1h-20l-6.6 6.7h-40v22c-2.3.4-4.5 1.1-6.7 2l2.6 6.2c7-2.9 14.6-2.9 21.6 0 5.1 2.1 10.5 3.2 15.9 3.2s10.8-1.1 15.9-3.2c7-2.9 14.6-2.9 21.6 0l2.4-6.2c-3.8-1.6-7.6-2.4-11.5-2.6Zm-7.2.4c-2.7.4-5.4 1.1-8 2.2-8.9 3.7-18.4 3.4-26.7 0-4.4-1.8-8.9-2.7-13.3-2.7V40h36.1l6.7-6.7h10.3c-.7 7.6-2.4 14.9-5.1 21.8Z"/><path fill="#007dff" d="M13.3 33.3v-20H20V0h6.7v13.3H40V20h-6.7v13.3h-6.6V20H20v13.3h-6.7zM56.7 40c1.8 0 3.3 1.5 3.3 3.3s-1.5 3.3-3.3 3.3-3.3-1.5-3.3-3.3c-.1-1.8 1.4-3.3 3.3-3.3Z"/></symbol><symbol viewBox="0 0 80 80" id="icon-_icc_business_house_bank_building_finance_columns"><path d="M80 33.3v-6.7L40 0 0 26.7v6.7h6.7v40H0V80h80v-6.7h-6.7v-40H80Zm-60 40h-6.7v-40H20v40Zm13.3 0h-6.7v-40h26.7v40h-6.7m20.1 0H60v-40h6.7v40ZM12 26.7 40 8l28 18.7H12Z"/><path fill="#007dff" d="M46.7 73.3V56.7H33.3v16.6"/><circle cx="40" cy="18.3" r="3.3" fill="#007dff"/></symbol><symbol viewBox="0 0 71.08 80" id="icon-_icc_chemistry_study_learning_atom_school_education"><path d="M43.09 27c11.5-4.7 19.3-4.8 21.3-3.7 0 1.4-1.6 4.6-5.2 8.7 1.8 1.4 3.4 2.9 5 4.4 5.8-6.5 8.3-12.6 6.1-16.4-4.1-7.2-23-4-42.1 7 1.6-12.3 5.4-19.1 7.4-20.3 1.2.7 3.2 3.7 4.9 8.8l6.3-2.1C44.09 5.2 40.09 0 35.59 0c-8.3 0-15 17.9-15 40-9.8-7.6-13.8-14.3-13.8-16.6 1.2-.7 4.8-.9 10.1.2.4-2.3.8-4.4 1.3-6.5-8.5-1.7-15-.9-17.3 3-4.1 7.2 8 21.9 27.1 33-11.5 4.7-19.3 4.8-21.3 3.7 0-1.4 1.6-4.6 5.2-8.7l-5-4.4c-5.8 6.5-8.3 12.6-6.1 16.4 4.1 7.2 23 4 42.1-7-1.5 12.2-5.3 19-7.3 20.2-1.2-.7-3.2-3.7-4.9-8.8-2.1.8-4.2 1.5-6.3 2.1 2.7 8.2 6.7 13.4 11.2 13.4 8.3 0 15-17.9 15-40 9.8 7.6 13.8 14.3 13.8 16.6-1.2.7-4.8.9-10.1-.2l-1.3 6.6c8.5 1.7 15 .9 17.3-3 4.1-7.2-8.1-21.9-27.2-33Zm.7 17.7c-1.3.8-2.6 1.7-4 2.5s-2.8 1.6-4.2 2.3c-1.4-.7-2.7-1.4-4.2-2.3-1.4-.8-2.8-1.7-4-2.5-.1-1.5-.1-3.1-.1-4.7s0-3.2.1-4.7c1.3-.8 2.6-1.7 4-2.5s2.8-1.6 4.2-2.3c1.4.7 2.7 1.4 4.2 2.3 1.4.8 2.8 1.6 4 2.5.1 1.5.1 3.1.1 4.7s0 3.2-.1 4.7Z"/><circle cx="35.59" cy="40" r="3.3" fill="#007dff"/></symbol><symbol viewBox="0 0 80.1 80.06" id="icon-_icc_communication_chat_message_talk_bubble"><path d="M40 0C17.9 0 0 16.4 0 36.7 0 44.6 2.8 52 7.5 58L.3 75.4c-.7 1.7.1 3.6 1.8 4.4.9.4 1.8.3 2.6 0L26 71c4.4 1.5 9.1 2.4 14.1 2.4 22.1 0 40-16.4 40-36.7C80 16.4 62.1 0 40 0Zm0 66.7c-4 0-8.1-.7-11.9-2l-2.4-.8-16.2 6.7L15.1 57l-2.4-3.1c-4-5.1-6.1-11-6.1-17.2 0-16.5 15-30 33.3-30s33.3 13.5 33.3 30c.1 16.5-14.8 30-33.2 30Z"/><circle cx="40" cy="36.7" r="5" fill="#007dff"/><circle cx="23.3" cy="36.7" r="5" fill="#007dff"/><circle cx="56.7" cy="36.7" r="5" fill="#007dff"/></symbol><symbol viewBox="0 0 80 80" id="icon-_icc_delivered_delivery_open_parcel_package_box_unboxed"><path fill="#007dff" d="M73.3 40v23.3L40 80 6.7 63.3V40l6.6 3.3v15.9l23.4 11.7V48.3l3.3-5 3.3 5v22.6l23.4-11.7V43.3l6.6-3.3z"/><path d="M80 16.7 46.7 0 40 10 33.3 0 0 16.7l6.7 10-6.7 10 33.3 16.7 6.7-10 6.7 10L80 36.7l-6.7-10 6.7-10ZM31.1 8.6 34 13 12.7 23.7l-2.9-4.4L31.1 8.6Zm0 36.1L9.7 34.1l2.9-4.4L34 40.3l-2.9 4.4Zm-9.5-18L40 17.5l18.4 9.2L40 35.9l-18.4-9.2Zm27.3 18L46 40.3l21.3-10.7 2.9 4.4-21.3 10.7Zm18.4-21L46 13l2.9-4.4 21.3 10.7-2.9 4.4Z"/></symbol><symbol viewBox="0 0 80 80.2" id="icon-_icc_device_cellphone_protection_shield_security_mobile_lock"><path d="M53.3 13.4V6.7c0-3.7-3-6.7-6.7-6.7h-40C3 .1 0 3.1 0 6.8v66.7c0 3.7 3 6.7 6.7 6.7h40c3.7 0 6.7-3 6.7-6.7V60.1H6.7V6.8h40v6.7h6.6v-.1ZM26.7 66.8c1.8 0 3.3 1.5 3.3 3.3s-1.5 3.3-3.3 3.3-3.3-1.5-3.3-3.3 1.4-3.3 3.3-3.3Z"/><path d="M13.3 19.4v10.3c0 9.1 5.5 16.9 13.3 20.4C34.5 46.7 40 38.8 40 29.7V19.4c-8.9-3.7-18.4-3.4-26.7 0Zm20 10.3c0 5.1-2.5 9.9-6.7 12.8-4.1-2.9-6.7-7.6-6.7-12.8v-5.5c2.2-.5 4.4-.8 6.7-.8s4.5.3 6.7.8v5.5Zm40-2.9v-3.3c0-5.5-4.5-10-10-10s-10 4.5-10 10v3.3c-3.7 0-6.7 3-6.7 6.7v13.3c0 3.7 3 6.7 6.7 6.7h20c3.7 0 6.7-3 6.7-6.7V33.4c0-3.6-3-6.6-6.7-6.6ZM60 23.4c0-1.8 1.5-3.3 3.3-3.3s3.3 1.5 3.3 3.3v3.3H60v-3.3Zm13.3 23.4h-6.7v-6.7H60v6.7h-6.7V33.4h20v13.4Z" fill="#007dff"/></symbol><symbol viewBox="0 0 80.1 80.1" id="icon-_icc_devices_cellphone_device_smartphone_tablet_mobile"><path d="M73.3 26.7H60v-20C60 3 57 0 53.3 0H6.7C3 0 0 3 0 6.7v66.7c0 3.7 3 6.7 6.7 6.7h66.7c3.7 0 6.7-3 6.7-6.7v-40c-.1-3.7-3.1-6.7-6.8-6.7Zm-26.6 6.6v40h-40V6.7h46.7v20c-3.7 0-6.7 3-6.7 6.6Zm26.6 40h-20v-40h20v40Z"/><path d="M36.7 66.7c0-1.8-1.5-3.3-3.3-3.3h-6.7c-1.8 0-3.3 1.5-3.3 3.3s1.5 3.3 3.3 3.3h6.7c1.8 0 3.3-1.5 3.3-3.3Z" fill="#007dff"/><circle cx="63.3" cy="66.7" r="3.3" fill="#007dff"/></symbol><symbol viewBox="0 0 80.1 60.1" id="icon-_icc_email_message_mail_letter_envelope"><path d="M73.3 0H6.7C3 0 0 3 0 6.7v46.7c0 3.7 3 6.7 6.7 6.7h66.7c3.7 0 6.7-3 6.7-6.7V6.7C80 3 77 0 73.3 0Zm-4.7 6.7L42.4 32.9a3.32 3.32 0 0 1-4.7 0L11.4 6.7h57.2ZM6.7 11.4 25.3 30 6.7 48.6V11.4Zm4.7 41.9L30 34.7l2.9 2.9c2 1.9 4.5 2.9 7.1 2.9s5.1-1 7.1-2.9l2.9-2.9 18.6 18.6H11.4Zm61.9-4.7L54.7 30l18.6-18.6v37.2Z"/><path d="M79.8 4.9C79 2.1 76.4 0 73.3 0H6.7C3.6 0 1 2.1.3 4.9L2 6.6l30.9 31c2 1.9 4.5 2.9 7.1 2.9s5.1-1 7.1-2.9l31-31 1.7-1.7Z" fill="#007dff"/><path d="M68.6 6.7 42.4 32.9a3.32 3.32 0 0 1-4.7 0L11.4 6.7h57.2Z" fill="#fff"/></symbol><symbol viewBox="0 0 73.4 80" id="icon-_icc_hr_agreement_job offer_signing_wage_contract"><path d="M13.4 42.2h33.3v5H13.4zm0-9.8h33.3v5H13.4zm0-9.8h14.3v5H13.4zm0-9.7h14.3v5H13.4zm19.7 0h13.6v13H33.1zm-19.7 39h26.7v5H13.4zm0 9.8h23.3v5H13.4z"/><path d="M60 44.6V0H0v80h60V54.1m-6.6 6.6v12.6H6.7V6.7h46.7v44.6"/><path fill="#007dff" d="m60 54.1 13.4-13.4-4.8-4.7-8.6 8.6-6.6 6.7-8.3 8.3-2.4 7.1 7.1-2.4 3.6-3.6 6.6-6.6z"/></symbol><symbol viewBox="0 0 80 80" id="icon-_icc_hr_headhunting_research_search_resume_cv_employee"><path d="M13.3 61.7H31c3.9 4.1 9.5 6.7 15.6 6.7 4.8 0 9.2-1.6 12.8-4.2L75.3 80l4.7-4.7-15.9-15.9c2.6-3.6 4.2-8 4.2-12.8 0-6.9-3.3-13.1-8.3-17.1V10H46.7V6.7h-10a6.7 6.7 0 0 0-13.4 0h-10V10H0v70h60v-6.7H6.7V16.7h6.7V20h33.3v-3.3h6.7v9.4c-2.2-.7-4.4-1.1-6.7-1.1-3 0-5.8.6-8.3 1.7h-15v5h7.7c-1.4 1.5-2.6 3.2-3.6 5H13.3v5h12.3c-.4 1.6-.6 3.3-.6 5H13.3v5h12.3c.4 1.8 1 3.4 1.9 5H13.3v5Zm23.4-3.9c-3-2.7-5-6.7-5-11.1 0-8.3 6.7-15 15-15s15 6.7 15 15c0 4.4-2 8.4-5 11.1"/><path d="M13.3 26.7h5v5h-5z"/><circle cx="46.7" cy="41.7" r="5" fill="#007dff"/><path d="M36.7 57.7c2.7 2.4 6.2 3.8 10 3.8s7.3-1.5 10-3.8v-4.4c0-1.8-1.5-3.3-3.3-3.3h-1.2c-1.6 1-3.5 1.7-5.5 1.7s-3.9-.6-5.5-1.7H40c-1.8 0-3.3 1.5-3.3 3.3v4.4Z" fill="#007dff"/></symbol><symbol viewBox="0 0 80.01 80.02" id="icon-_icc_hr_interface_headhunter_search_magnifier_find_person"><path d="m77.1 62.9-20-20C58.9 39 60 34.6 60 30 60 13.4 46.6 0 30 0S0 13.4 0 30s13.4 30 30 30c4.6 0 9-1.1 12.9-2.9l20 20c3.9 3.9 10.2 3.9 14.1 0 4-3.9 4-10.3.1-14.2ZM6.7 30C6.7 17.1 17.1 6.7 30 6.7S53.3 17.1 53.3 30 42.9 53.3 30 53.3 6.7 42.9 6.7 30Zm65.7 42.4a3.32 3.32 0 0 1-4.7 0l-19-19c1.7-1.4 3.3-3 4.7-4.7l18.9 18.9c1.4 1.3 1.4 3.5.1 4.8Z"/><path d="M35.5 23.1c.6-3.6-1.9-6.5-5.5-6.5s-6.1 2.9-5.5 6.5l.9 5.4c.4 2.1 2.4 3.9 4.6 3.9 2.2 0 4.2-1.7 4.6-3.9l.9-5.4Zm5.7 11.7-3.7-1.2c-1.8 2.3-4.6 3.8-7.5 3.8s-5.7-1.5-7.5-3.8l-3.7 1.2c-1.2.4-2.1 1.7-2.1 2.9v5.6h26.7v-5.6c-.1-1.1-1-2.5-2.2-2.9Z" fill="#007dff"/></symbol><symbol viewBox="0 0 80 80" id="icon-_icc_lines_copy_figure_abstract_mark_circles"><path d="M43.3 0v6.7c16.9 1.7 30 16 30 33.3s-13.1 31.6-30 33.3V80C63.9 78.3 80 61.1 80 40S63.9 1.7 43.3 0Zm-6.6 73.3c-16.8-1.7-30-16-30-33.3s13.2-31.6 30-33.3V0C16.1 1.7 0 18.9 0 40s16.1 38.3 36.7 40v-6.7Z"/><path d="M20.3 36.7C21.9 27.2 30.1 20 40 20s18.1 7.2 19.7 16.7h6.7C64.8 23.5 53.6 13.3 40 13.3S15.2 23.5 13.6 36.6h6.7v.1Zm39.4 6.6C58.1 52.8 49.9 60 40 60s-18.1-7.2-19.7-16.7h-6.7C15.2 56.5 26.4 66.7 40 66.7s24.8-10.2 26.4-23.3l-6.7-.1Z" fill="#007dff"/><path d="M40 26.7c-7.4 0-13.3 6-13.3 13.3s6 13.3 13.3 13.3 13.3-6 13.3-13.3S47.4 26.7 40 26.7Zm0 20a6.7 6.7 0 1 1 0-13.4 6.7 6.7 0 0 1 0 13.4Z" fill="#007dff"/></symbol><symbol viewBox="0 0 80.05 73.36" id="icon-_icc_message_communication_talk_bubbles_chat_bubble"><path d="M20.5 48.1 17.9 47l-8.4 3.5 3.1-7.4-2.1-3C8 36.6 6.7 32.5 6.7 28.3 6.7 16.4 17.1 6.7 30 6.7s23.3 9.7 23.3 21.7S42.8 50.1 30 50.1c-3.3-.1-6.5-.7-9.5-2Zm12.6 8.5C48.2 55.1 60 43 60 28.4c0-2.3-.3-4.5-.9-6.6l-3.4-7.9C50.5 5.6 41 0 30 0 13.4 0 0 12.7 0 28.3c0 5.8 1.8 11.1 5 15.6L.3 55.3c-.7 1.7.1 3.6 1.8 4.4.8.4 1.8.3 2.5 0l13.3-5.5c2 .8 4.1 1.5 6.3 1.9l8.9.5Z"/><path d="M59.1 21.8c8.3 3.3 14.2 11 14.2 19.9 0 4.2-1.3 8.3-3.8 11.8l-2.1 3 3.1 7.4-8.4-3.5-2.6 1.1c-3 1.3-6.2 1.9-9.5 1.9-6.7 0-12.7-2.6-16.9-6.8l-8.8-.4C29.5 64.4 39 70 50 70c4.3 0 8.4-.9 12.1-2.4l13.3 5.5c.8.3 1.7.4 2.6 0 1.7-.7 2.5-2.7 1.8-4.4L75 57.3c3.1-4.5 5-9.9 5-15.6 0-13.8-10.4-25.3-24.2-27.8l3.3 7.9Z" fill="#007dff"/></symbol><symbol viewBox="0 0 80 80" id="icon-_icc_message_team_chat bubble_report_chat_conference_discussion"><path d="M53.3 0H26.7C23 0 20 3 20 6.7V20c0 3.7 3 6.7 6.7 6.7h6.7L40 35l6.7-8.3h6.7c3.7 0 6.7-3 6.7-6.7V6.7C60 3 57 0 53.3 0Zm0 20h-9.9L40 24.3 36.5 20h-9.9V6.7h26.7V20Z" fill="#007dff"/><path d="M73.3 0H65v6.7h8.3V20H65v6.7l8.3 8.3v-8.3c3.7 0 6.7-3 6.7-6.7V6.7C80 3 77 0 73.3 0ZM15 20H6.7V6.7H15V0H6.7C3 0 0 3 0 6.7V20c0 3.7 3 6.7 6.7 6.7V35l8.3-8.3V20Zm25 20c-5.5 0-10 4.5-10 10s4.5 10 10 10 10-4.5 10-10-4.5-10-10-10Zm0 13.3c-1.8 0-3.3-1.5-3.3-3.3s1.5-3.3 3.3-3.3 3.3 1.5 3.3 3.3-1.5 3.3-3.3 3.3ZM53.3 80v-6.7c0-3.7-3-6.7-6.7-6.7H33.3c-3.7 0-6.7 3-6.7 6.7V80h6.7v-6.7h13.3V80h6.7ZM70 40c-5.5 0-10 4.5-10 10s4.5 10 10 10 10-4.5 10-10-4.5-10-10-10Zm0 13.3c-1.8 0-3.3-1.5-3.3-3.3s1.5-3.3 3.3-3.3 3.3 1.5 3.3 3.3-1.5 3.3-3.3 3.3Zm10 13.4H63.3c-3.7 0-6.7 3-6.7 6.7V80h6.7v-6.7H80v-6.6ZM0 50c0 5.5 4.5 10 10 10s10-4.5 10-10-4.5-10-10-10S0 44.5 0 50Zm6.7 0c0-1.8 1.5-3.3 3.3-3.3s3.3 1.5 3.3 3.3-1.5 3.3-3.3 3.3-3.3-1.5-3.3-3.3ZM0 66.7h16.7c3.7 0 6.7 3 6.7 6.7V80h-6.7v-6.7H0v-6.6Z"/></symbol><symbol viewBox="0 0 80 80" id="icon-_icc_networking_advancement_career_interchangeability_employees_staff_hr"><path d="M16.7 43.3c-5.5 0-10 4.5-10 10s4.5 10 10 10 10-4.5 10-10-4.5-10-10-10Zm0 13.4c-1.8 0-3.3-1.5-3.3-3.3s1.5-3.3 3.3-3.3 3.3 1.5 3.3 3.3-1.5 3.3-3.3 3.3Zm-10 16.6h20V80h6.7v-6.7c0-3.7-3-6.7-6.7-6.7h-20c-3.7 0-6.7 3-6.7 6.7V80h6.7v-6.7ZM63.3 0c-5.5 0-10 4.5-10 10s4.5 10 10 10 10-4.5 10-10-4.4-10-10-10Zm0 13.3c-1.8 0-3.3-1.5-3.3-3.3s1.5-3.3 3.3-3.3 3.3 1.5 3.3 3.3c.1 1.8-1.4 3.3-3.3 3.3ZM53.3 30h20v6.7H80V30c0-3.7-3-6.7-6.7-6.7h-20c-3.7 0-6.7 3-6.7 6.7v6.7h6.7V30Z"/><path d="M73.2 41.7C72.4 59.3 57.8 73.3 40 73.3c-.6 0-1.1-.1-1.7-.1v6.7c.6 0 1.1.1 1.7.1 21.5 0 39-17 39.9-38.3h-6.7ZM40 0C17.9 0 0 17.9 0 40c0 .6 0 1.1.1 1.7h6.7c0-.6-.1-1.1-.1-1.7C6.7 21.6 21.6 6.7 40 6.7c2.9 0 5.7.4 8.3 1.1V.9C45.6.3 42.9 0 40 0Z" fill="#007dff"/></symbol><symbol viewBox="0 0 80 80" id="icon-_icc_organization_scheme_group_hierarchy_structure_business"><path d="M10 60C4.5 60 0 64.5 0 70s4.5 10 10 10 10-4.5 10-10-4.5-10-10-10Zm0 13.3c-1.8 0-3.3-1.5-3.3-3.3s1.5-3.3 3.3-3.3 3.3 1.5 3.3 3.3-1.5 3.3-3.3 3.3ZM10 30C4.5 30 0 34.5 0 40s4.5 10 10 10 10-4.5 10-10-4.5-10-10-10Zm0 13.3c-1.8 0-3.3-1.5-3.3-3.3s1.5-3.3 3.3-3.3 3.3 1.5 3.3 3.3-1.5 3.3-3.3 3.3ZM10 0C4.5 0 0 4.5 0 10s4.5 10 10 10 10-4.5 10-10S15.5 0 10 0Zm0 13.3c-1.8 0-3.3-1.5-3.3-3.3S8.2 6.7 10 6.7s3.3 1.5 3.3 3.3-1.5 3.3-3.3 3.3ZM46.7 15c-5.5 0-10 4.5-10 10s4.5 10 10 10 10-4.5 10-10-4.5-10-10-10Zm0 13.3c-1.8 0-3.3-1.5-3.3-3.3s1.5-3.3 3.3-3.3S50 23.2 50 25s-1.5 3.3-3.3 3.3Z" fill="#007dff"/><path d="M36.7 25c0-1.2.2-2.3.6-3.3h-5.6c-3.7 0-6.7 3-6.7 6.7v8.3h-5.6c.4 1 .6 2.2.6 3.3s-.2 2.3-.6 3.3H25c3.7 0 6.7-3 6.7-6.7v-8.3h5.6c-.4-1-.6-2.1-.6-3.3Zm6.6-11.7v2.2c1-.4 2.2-.6 3.3-.6 1.2 0 2.3.2 3.3.6v-2.2c0-3.7-3-6.7-6.7-6.7H19.4c.4 1 .6 2.2.6 3.3s-.2 2.3-.6 3.3h23.9v.1Z"/><path d="M46.7 45c-5.5 0-10 4.5-10 10s4.5 10 10 10 10-4.5 10-10-4.5-10-10-10Zm0 13.3c-1.8 0-3.3-1.5-3.3-3.3s1.5-3.3 3.3-3.3S50 53.2 50 55s-1.5 3.3-3.3 3.3Z" fill="#007dff"/><path d="M46.7 65c-1.2 0-2.3-.2-3.3-.6v2.2h-24c.4 1 .6 2.2.6 3.3s-.2 2.3-.6 3.3h23.9c3.7 0 6.7-3 6.7-6.7v-2.2c-1 .5-2.2.7-3.3.7Z"/><path d="M70 30c-5.5 0-10 4.5-10 10s4.5 10 10 10 10-4.5 10-10-4.5-10-10-10Zm0 13.3c-1.8 0-3.3-1.5-3.3-3.3s1.5-3.3 3.3-3.3 3.3 1.5 3.3 3.3-1.5 3.3-3.3 3.3Z" fill="#007dff"/><path d="M70 50c-1.2 0-2.3-.2-3.3-.6v2.2H56.1c.4 1 .6 2.2.6 3.3s-.2 2.3-.6 3.3h10.6c3.7 0 6.7-3 6.7-6.7v-2.2c-1.1.5-2.2.7-3.4.7Zm-3.3-21.7v2.2c1-.4 2.2-.6 3.3-.6s2.3.2 3.3.6v-2.2c0-3.7-3-6.7-6.7-6.7H56.1c.4 1 .6 2.2.6 3.3s-.2 2.3-.6 3.3l10.6.1Z"/></symbol><symbol viewBox="0 0 80 80" id="icon-_icc_promotion_hr_staff_employees_career_growth_report"><path d="M63.3 43.3c-5.5 0-10 4.5-10 10s4.5 10 10 10 10-4.5 10-10-4.4-10-10-10Zm0 13.4c-1.8 0-3.3-1.5-3.3-3.3s1.5-3.3 3.3-3.3 3.3 1.5 3.3 3.3c.1 1.8-1.4 3.3-3.3 3.3Zm-10 16.6h20V80H80v-6.7c0-3.7-3-6.7-6.7-6.7h-20c-3.7 0-6.7 3-6.7 6.7V80h6.7v-6.7Z" fill="#007dff"/><path d="M46.7 10V6.7h-10a6.7 6.7 0 0 0-13.4 0h-10V10H0v70h41.7v-6.7h-35V16.7h6.7V20h33.3v-3.3h6.7v21.7H60V10H46.7Z"/><path d="M50 25 30 45l-6.7-6.7-10 10v7.1l10-10 6.7 6.7 20-20V25zm-36.7 0h23.3v5H13.3zm0 36.7h10v5h-10zm15 0h13.3v5H28.3z"/></symbol><symbol viewBox="0 0 80 80" id="icon-_icc_real_factory_manufacture_plant_construction_building"><path d="M60 0v20L46.7 33.3v-20l-20 20v-20L0 40v40h80V0H60Zm13.3 66.7v6.7H6.7V42.8L20 29.4v20l20-20v20l26.7-26.7v-16h6.7v40m-.1 6.6V60"/><path fill="#007dff" d="M40 60h6.7v6.7H40zm-13.3 0h6.7v6.7h-6.7zm-13.4 0H20v6.7h-6.7zm60 0H60v6.7h13.3m0-20H60v6.6h13.3"/></symbol><symbol viewBox="0 0 80.1 79.9" id="icon-_icc_safe_security_protection_lock_access_secure_combinations"><path d="M43.4 53.2h8.3c2.8 0 5-2.2 5-5v-5h10v17.3c-3.8 1.4-6.6 5.1-6.6 9.4 0 5.5 4.5 10 10 10s10-4.5 10-10c0-4.3-2.8-8-6.7-9.4V36.6H56.8v-5c0-2.8-2.2-5-5-5h-1.7v-3.3c0-1.2-.2-2.3-.6-3.3l6.7-6.7h4.5c1.4 3.9 5 6.7 9.4 6.7 5.5 0 10-4.5 10-10s-4.5-10-10-10c-4.3 0-8 2.8-9.4 6.7h-7.3l-8.2 8.2c-1.5-.9-3.3-1.5-5.2-1.5-5.5 0-10 4.5-10 10v3.3h-1.7c-2.7 0-5 2.2-5 5v2.2l-10-10v-4.5c3.9-1.4 6.7-5 6.7-9.4 0-5.5-4.5-10-10-10S0 4.5 0 10c0 4.3 2.8 8 6.7 9.4v7.3l13.4 13.2L6.8 53.2v7.3C2.9 61.9.1 65.6.1 69.9c0 5.5 4.5 10 10 10s10-4.5 10-10c0-4.3-2.8-8-6.7-9.4V56l10-10v2.2c0 2.8 2.3 5 5 5h8.3M70.1 6.6c1.8 0 3.3 1.5 3.3 3.3s-1.5 3.3-3.3 3.3-3.3-1.5-3.3-3.3 1.5-3.3 3.3-3.3Zm-60 6.6c-1.8 0-3.3-1.5-3.3-3.3s1.5-3.3 3.3-3.3 3.3 1.5 3.3 3.3-1.5 3.3-3.3 3.3Zm0 60c-1.8 0-3.3-1.5-3.3-3.3s1.5-3.3 3.3-3.3 3.3 1.5 3.3 3.3-1.5 3.3-3.3 3.3Zm25-50c0-2.8 2.2-5 5-5s5 2.2 5 5v3.3h-10v-3.3Zm15 23.4h-6.7v-6.7h-6.7v6.7h-6.6V33.2h20v13.4Zm20 26.6c-1.8 0-3.3-1.5-3.3-3.3s1.5-3.3 3.3-3.3 3.3 1.5 3.3 3.3-1.5 3.3-3.3 3.3Z"/><path d="M36.8 53.2v7.3c-3.9 1.4-6.7 5.1-6.7 9.4 0 5.5 4.5 10 10 10s10-4.5 10-10c0-4.3-2.8-8-6.7-9.4v-7.3m-3.3 20c-1.8 0-3.3-1.5-3.3-3.3s1.5-3.3 3.3-3.3 3.3 1.5 3.3 3.3-1.5 3.3-3.3 3.3Z" fill="#007dff"/></symbol><symbol viewBox="0 0 80 66.7" id="icon-_icc_school_open_knowledge_book_education_learning_study"><path d="M40.1 11.1C33.3 4.3 23.8 0 13.4 0v42.4c10.4 0 19.8 4.2 26.7 11 6.8-6.8 16.3-11 26.7-11V.1c-10.4 0-19.9 4.2-26.7 11Zm-3.3 31.3c-5.1-3.2-10.7-5.3-16.7-6.2V7.4c5.7 1.2 11 4.1 15.3 8.4l1.4 1.4v25.2Zm23.3-6.2c-6 .9-11.6 3-16.7 6.2V17.2l1.4-1.4c4.3-4.2 9.6-7.1 15.3-8.4v28.8Z" fill="#007dff"/><path d="M13.4 20.1H6.7v33.3h66.7V20.1h-6.7v-6.7h10c1.8 0 3.3 1.5 3.3 3.3v40c0 1.8-1.5 3.3-3.3 3.3h-30a6.7 6.7 0 0 1-13.4 0h-30C1.5 60 0 58.5 0 56.7v-40c0-1.8 1.5-3.3 3.3-3.3h10v6.7h.1Z"/></symbol><symbol viewBox="0 0 80.1 80" id="icon-_icc_shopping_coin_finance_money_bank_dollar_coins"><path d="M16.7 20H10c-1.8 0-3.3-1.5-3.3-3.3 0-1.8 1.5-3.3 3.3-3.3h6.7c1.8 0 3.3 1.5 3.3 3.3h6.7c0-5.5-4.5-10-10-10V0H10v6.7c-5.5 0-10 4.5-10 10s4.5 10 10 10h6.7c1.8 0 3.3 1.5 3.3 3.3 0 1.8-1.5 3.3-3.3 3.3H10c-1.8 0-3.3-1.5-3.3-3.3H0c0 5.5 4.5 10 10 10v6.7h6.7V40c5.5 0 10-4.5 10-10s-4.5-10-10-10Z" fill="#007dff"/><path d="M61.7 0C51.6 0 43.4 4.5 43.4 10v37.8c-2.5-.7-5.3-1.1-8.3-1.1-10.1 0-18.3 4.5-18.3 10V70c0 5.5 8.2 10 18.3 10 8.8 0 16.1-3.4 17.9-7.9 2.6.8 5.6 1.2 8.8 1.2 10.1 0 18.3-4.5 18.3-10V10C80 4.5 71.8 0 61.7 0Zm0 6.7c6.3 0 10.4 2.1 11.5 3.3-1.1 1.2-5.1 3.3-11.5 3.3S51.3 11.2 50.2 10c1.1-1.2 5.1-3.3 11.5-3.3ZM35 53.3c6.3 0 10.4 2.1 11.5 3.3C45.4 57.9 41.3 60 35 60s-10.4-2.1-11.5-3.3c1.1-1.2 5.2-3.4 11.5-3.4ZM46.7 71c-3.2 1.4-7.2 2.3-11.7 2.3s-8.5-.9-11.7-2.3v-6.7c3.2 1.4 7.2 2.3 11.7 2.3s8.5-.9 11.7-2.3V71Zm26.6-6.6c-3.2 1.4-7.2 2.3-11.7 2.3-3 0-5.8-.4-8.3-1.1v-6.7c2.5.7 5.3 1.1 8.3 1.1 4.4 0 8.5-.9 11.7-2.3v6.7Zm0-13.4c-3.2 1.4-7.2 2.3-11.7 2.3s-8.2-.8-11.4-2.2c-.1-.1-.2-.2-.3-.2v-6.5c3.2 1.4 7.2 2.3 11.7 2.3s8.5-.9 11.7-2.3V51Zm0-13.3c-3.2 1.4-7.2 2.3-11.7 2.3s-8.5-.9-11.7-2.3V31c3.2 1.4 7.2 2.3 11.7 2.3s8.5-.9 11.7-2.3v6.7Zm0-13.3c-3.2 1.4-7.2 2.3-11.7 2.3s-8.5-.9-11.7-2.3v-6.7c3.2 1.4 7.2 2.3 11.7 2.3s8.5-.9 11.7-2.3v6.7Z"/></symbol><symbol viewBox="0 0 60 60" id="icon-_icc_statistics_analytics_chart_sales_business_graph_finance"><path fill="#007dff" d="M6.7 53.3V0H0v60h60v-6.7H6.7z"/><path d="M13.3 26.7H20v20h-6.7zm13.4-20h6.7v40h-6.7zM40 20h6.7v26.7H40z"/><path fill="#0b3536" d="M53.3 33.3H60v13.3h-6.7z"/></symbol><symbol viewBox="0 0 80 80" id="icon-_icc_statistics_chart_circle_graph_diagram"><path fill="#007dff" d="M73.3 10H80v23.3h-6.7zM60 0h6.7v33.3H60zM46.7 20h6.7v13.3h-6.7z"/><path d="M40 40V0C17.9 0 0 17.9 0 40s17.9 40 40 40 40-17.9 40-40H40ZM33.3 7.3V42L14.2 61.1C9.5 55.3 6.7 48 6.7 40c0-16.1 11.4-29.6 26.6-32.7Zm6.7 66c-8 0-15.3-2.8-21.1-7.5L38 46.7h34.6c-3 15.2-16.5 26.6-32.6 26.6Z"/></symbol><symbol viewBox="0 0 79.9 79.95" id="icon-_icc_study_learning_plate_diploma_school_education_certificate"><path d="m18.6 23.35 15-15c-.6-2.2 0-4.7 1.7-6.4 2.6-2.6 6.8-2.6 9.4 0 1.7 1.7 2.3 4.2 1.7 6.4l15 15H52l-10.3-10.2c-1.1.3-2.3.3-3.4 0L28 23.35h-9.4ZM47 36.75l-8.6 8.6-5.4-5.3-4.7 4.7 7.6 7.6c1.3 1.3 3.4 1.3 4.7 0l11-11-4.6-4.6Zm-33.7 23.3h53.3v6.7H13.3z" fill="#007dff"/><path d="M76.7 23.35H3.3c-1.8 0-3.3 1.5-3.3 3.3v50c0 1.8 1.5 3.3 3.3 3.3h73.3c1.8 0 3.3-1.5 3.3-3.3v-50c.1-1.8-1.4-3.3-3.2-3.3Zm-3.4 50H6.7v-43.3h66.7v43.3h-.1Z"/></symbol><symbol viewBox="0 0 80 80.04" id="icon-_icc_takeoff_transport_aircraft_travel_transportation_airport"><path d="M79.8 3.44c-.9-3.6-8.9-4.5-17.8-2.1l-39.2 10.6-16.3-9.4L0 4.24l6.7 12-3.3.8.9 3.2c8.2 4.7 17.5 5.7 25.9 3.4l5-1.3-3.2 11 6.4-1.5 13-13.8 20.6-5.5c5.2-1.5 8.8-5.5 7.8-9.1Z" fill="#007dff"/><path d="M66.7 23.34v16.7l3.3 3.3v36.7h6.7v-36.7l3.3-3.3v-16.7H66.7zm-46.7 30h6.7v6.7H20z"/><path d="M46.7 50.04v-10H0v40h63.3v-30H46.7Zm-6.7 3.3h-6.7v6.7H40v13.3h-6.7v-6.7h-6.7v6.7H20v-6.7h-6.7v6.7H6.6v-13.3h6.7v-6.7H6.6v-6.7H40v6.7Zm16.7 20h-10v-16.6h10v16.6Z"/></symbol><symbol viewBox="0 0 71.5 71.4" id="icon-_icc_target_arrow_hit_dartboard_aim"><path d="M36.2 19.8c-1.2-.2-2.4-.4-3.7-.4-10.8 0-19.5 8.7-19.5 19.5s8.7 19.5 19.5 19.5S52 49.7 52 38.9c0-1.3-.1-2.5-.4-3.7h-6.7c.3 1.2.6 2.4.6 3.7 0 7.2-5.8 13-13 13s-13-5.8-13-13 5.8-13 13-13c1.3 0 2.5.2 3.7.6v-6.7Z" fill="#007dff"/><path d="M35.4 13.1c-.9-.1-1.9-.2-2.8-.2-14.4 0-26 11.6-26 26s11.6 26 26 26 26-11.6 26-26c0-1-.1-1.9-.2-2.9l5.5-5.5c.7 2.7 1.1 5.5 1.1 8.4 0 17.9-14.5 32.5-32.5 32.5S0 56.9 0 38.9 14.5 6.4 32.5 6.4c2.9 0 5.7.4 8.4 1.1l-5.5 5.6Z"/><path d="m56.5 28.8 15-15h-9.2l5.9-5.9-4.6-4.6-5.9 5.9V0l-15 15v9.2l-8.5 8.5c-.5-.1-1.1-.2-1.7-.2-3.6 0-6.5 2.9-6.5 6.5s2.9 6.5 6.5 6.5S39 42.6 39 39c0-.6-.1-1.1-.2-1.7l8.5-8.5h9.2Z"/></symbol><symbol viewBox="0 0 80 80" id="icon-_icc_team_collective_conference_session_people_listeners_meeting"><path d="M40 0c-5.5 0-10 4.5-10 10s4.5 10 10 10 10-4.5 10-10S45.5 0 40 0Zm0 13.3c-1.8 0-3.3-1.5-3.3-3.3s1.5-3.3 3.3-3.3 3.3 1.5 3.3 3.3-1.5 3.3-3.3 3.3Zm13.3 23.4v-5c0-3.7-3-6.7-6.7-6.7H33.3c-3.7 0-6.7 3-6.7 6.7v5h6.7v-5h13.3v5h6.7Z" fill="#007dff"/><path d="M70 0c-5.5 0-10 4.5-10 10s4.5 10 10 10 10-4.5 10-10S75.5 0 70 0Zm0 13.3c-1.8 0-3.3-1.5-3.3-3.3s1.5-3.3 3.3-3.3 3.3 1.5 3.3 3.3-1.5 3.3-3.3 3.3ZM80 25H63.3c-3.7 0-6.7 3-6.7 6.7v5h6.7v-5H80V25ZM0 10c0 5.5 4.5 10 10 10s10-4.5 10-10S15.5 0 10 0 0 4.5 0 10Zm6.7 0c0-1.8 1.5-3.3 3.3-3.3s3.3 1.5 3.3 3.3-1.5 3.3-3.3 3.3-3.3-1.5-3.3-3.3ZM0 25h16.7c3.7 0 6.7 3 6.7 6.7v5h-6.7v-5H0V25Zm40 18.3c-5.5 0-10 4.5-10 10s4.5 10 10 10 10-4.5 10-10-4.5-10-10-10Zm0 13.4c-1.8 0-3.3-1.5-3.3-3.3s1.5-3.3 3.3-3.3 3.3 1.5 3.3 3.3-1.5 3.3-3.3 3.3ZM53.3 80v-5c0-3.7-3-6.7-6.7-6.7H33.3c-3.7 0-6.7 3-6.7 6.7v5h6.7v-5h13.3v5h6.7ZM70 43.3c-5.5 0-10 4.5-10 10s4.5 10 10 10 10-4.5 10-10-4.5-10-10-10Zm0 13.4c-1.8 0-3.3-1.5-3.3-3.3s1.5-3.3 3.3-3.3 3.3 1.5 3.3 3.3-1.5 3.3-3.3 3.3Zm10 11.6H63.3c-3.7 0-6.7 3-6.7 6.7v5h6.7v-5H80v-6.7Zm-80-15c0 5.5 4.5 10 10 10s10-4.5 10-10-4.5-10-10-10-10 4.5-10 10Zm6.7 0c0-1.8 1.5-3.3 3.3-3.3s3.3 1.5 3.3 3.3-1.5 3.3-3.3 3.3c-1.8.1-3.3-1.4-3.3-3.3ZM0 68.3h16.7c3.7 0 6.7 3 6.7 6.7v5h-6.7v-5H0v-6.7Z"/></symbol><symbol viewBox="0 0 73.4 80.1" id="icon-_icc_time_task_deadline_notification_document_alarm_bell"><path fill="#007dff" d="M13.4 40h26.7v6.7H13.4zm0 13.3h20V60h-20zm0-26.6h33.3v6.7H13.4z"/><path d="M13.4 13.3h26.7V20H13.4z"/><path d="M33.4 66.7H6.7v-60h46.7v26.7h6.7V6.7c0-3.7-3-6.7-6.7-6.7H6.7C3 0 0 3 0 6.7v60c0 3.7 3 6.7 6.7 6.7h26.7v-6.7Z"/><path d="M66.7 60V50c0-5.5-4.5-10-10-10s-10 4.5-10 10v10c0 3.7-3 6.7-6.7 6.7v6.7h10a6.7 6.7 0 0 0 13.4 0h10v-6.7c-3.7 0-6.7-3-6.7-6.7Zm-13.3 0V50c0-1.8 1.5-3.3 3.3-3.3S60 48.2 60 50v10c0 2.4.7 4.7 1.8 6.7H51.5c1.2-2 1.9-4.3 1.9-6.7Z"/></symbol><symbol viewBox="0 0 80 80" id="icon-_icc_transportation_conveyer_arrow_box_loading_direction"><path fill="#007dff" d="M28.3 6.7v10l-6.6-3.4-6.7 3.4v-10h13.3z"/><path d="M65 50H15C6.7 50 0 56.7 0 65s6.7 15 15 15h50c8.3 0 15-6.7 15-15s-6.7-15-15-15Zm0 23.3H15c-4.6 0-8.3-3.7-8.3-8.3s3.7-8.3 8.3-8.3h50c4.6 0 8.3 3.7 8.3 8.3s-3.7 8.3-8.3 8.3Z"/><circle cx="15" cy="65" r="3.3" fill="#007dff"/><circle cx="27.5" cy="65" r="3.3" fill="#007dff"/><circle cx="52.5" cy="65" r="3.3" fill="#007dff"/><circle cx="40" cy="65" r="3.3" fill="#007dff"/><circle cx="65" cy="65" r="3.3" fill="#007dff"/><path d="m79 19.3-11-11-4.7 4.7 5.3 5.3H50V25h18.6l-5.3 5.3L68 35l11-11c1.3-1.3 1.3-3.4 0-4.7Z" fill="#007dff"/><path d="M0 0v43.3h43.3V0H0Zm36.7 36.7h-30v-30h30v30Z"/></symbol><symbol viewBox="0 0 60 30" id="icon-_icc_yes_checks_ok_check_accept_double_tick"><path fill="#007dff" d="m34.6 13.5 8.9-8.8L38.7 0l-8.8 8.8 4.7 4.7z"/><path d="m26.4 21.8 8.2 8.2L60 4.7 55.3 0 34.6 20.6 21.3 7.2 16.5 12l5.1 5"/><path fill="#007dff" d="m21.6 17-3.5 3.6L4.7 7.2 0 12l18.1 18 8.3-8.2"/></symbol><symbol viewBox="0 0 48 48" id="icon-arbitrator"><path fill-rule="evenodd" d="M29.5 14c5.8 0 6.4 6 4.7 9.3-1.6 3.4-7.7 3.4-9.4 0s-1-9.3 4.7-9.3Zm0 14.2c6.2 0 9.5 2.8 9.5 5.5a44.2 44.2 0 0 1-19 0c0-2.7 3.4-5.5 9.5-5.5ZM17 16.4c5 0 5.5 5.2 4 8-1.4 3-6.6 3-8 0-1.5-2.8-1-8 4-8Zm2.8 12.8A18.5 18.5 0 0 0 17 29c-5.6 0-8 2-8 4 2.1.6 5.5.8 8.7.8 0-1.8.7-3.4 2-4.6Z" clip-rule="evenodd"/></symbol><symbol viewBox="0 0 40 40" id="icon-arrow-d"><path d="m7 21.8 1.6-1.6 10.4 10V4.5h2.2V30l10.2-10 1.5 1.5-12.8 12.7-13-12.4Z"/></symbol><symbol viewBox="0 0 40 40" id="icon-arrow-l"><path d="M17.6 6.4 19 8 9 18.5h26v2.1H9.2l10.2 10.2-1.5 1.6-12.7-13 12.4-13Z"/></symbol><symbol viewBox="0 0 40 40" id="icon-arrow-r"><path d="M22.4 32.3 21 30.8l10-10.5H5.2v-2.1h25.6L20.7 7.9l1.5-1.5 12.7 12.8-12.5 13Z"/></symbol><symbol fill="none" viewBox="0 0 16 14" id="icon-briefcase"><path fill="currentColor" fill-rule="evenodd" d="M4.796 1.556V0h6.4v1.556h-6.4Zm.014 6.22H1.6V4.668h12.8v3.108h-3.207V6.22h-1.6v1.556H6.41V6.22h-1.6v1.556ZM16 7.93V3.112H0V7.93c0 .775.647 1.404 1.443 1.404H4.81v1.555h1.6V9.333h3.183v1.555h1.6V9.333h3.364c.797 0 1.443-.63 1.443-1.404Zm-1.6 5.293v-2.334h-1.6v1.556H3.2v-1.556H1.6v2.334c0 .428.36.778.8.778h11.2c.44 0 .8-.35.8-.778Z" clip-rule="evenodd"/></symbol><symbol viewBox="0 0 40 40" id="icon-close"><path d="M34.3 32.6 21.6 20 34 7.4l-1.7-1.7L20 18.4 7.7 5.8 6 7.3 18.3 20 5.7 32.6l1.7 1.6L20 21.9l12.6 12.4 1.6-1.6Z"/></symbol><symbol viewBox="0 0 49 50" id="icon-contact"><path d="M30.1 25a37 37 0 0 0 7.1 21.9c1.5-.8 2.9-1.8 4.1-2.8a32.3 32.3 0 0 1 0-38.2 27 27 0 0 0-4.1-2.8A37 37 0 0 0 30.1 25m-5-25-2.5.1v49.8l2.5.1 2.5-.1V.1L25.1 0z"/><path d="M37.6 25c0 5.8 4 10.7 9.4 12.1.8-1.5 1.5-3 2-4.7-3.6-.5-6.4-3.7-6.4-7.4s2.8-6.9 6.4-7.4c-.5-1.6-1.2-3.2-2-4.7A12.5 12.5 0 0 0 37.6 25zM0 25a25 25 0 0 0 20 24.5V.5A25 25 0 0 0 0 25z"/></symbol><symbol viewBox="0 0 10 10" id="icon-contract"><g clip-path="url(#icon-contract_a)"><path d="M9.223 10V2.883L6.339 0H.78v10h8.443ZM6.107.761l2.354 2.354H6.107V.761ZM1.434.654h4.02V3.77h3.114v5.577H1.434V.654Z"/></g></symbol><symbol viewBox="0 0 48 48" id="icon-currency"><g clip-path="url(#icon-currency_a)"><path d="M13.7 22.8c-.6 0-1.1.5-1.1 1a1.1 1.1 0 1 0 2.2 0 1.1 1.1 0 0 0-1-1Z"/><path d="M22.5 16H10a1 1 0 0 0-.7.3 1 1 0 0 0-.3.7v13.7a1 1 0 0 0 .3.8 1 1 0 0 0 .7.2h12.5V16Zm-.2 13.7h-9.7c0-1-.8-1.8-1.8-1.8v-8c1 0 1.8-.9 1.8-1.8h9.7M38 29.5h-9.4a1 1 0 0 0-1 1v.2c0 .6.5 1 1 1H38c.5 0 1-.4 1-1v-.2c0-.5-.5-1-1-1Zm0-2.8h-9.4a1 1 0 0 0-1 1v.2c0 .6.5 1 1 1H38c.5 0 1-.4 1-1v-.2a1 1 0 0 0-1-1Zm0-2.8h-9.4a1 1 0 0 0-1 1v.2c0 .6.5 1 1 1H38c.5 0 1-.4 1-1V25a1 1 0 0 0-1-1Zm0-2.8h-9.4a1 1 0 0 0-1 1v.2c0 .6.5 1 1 1H38c.5 0 1-.4 1-1v-.1c0-.6-.5-1-1-1Z"/><path d="M27.1 30.7v-.2c0-.3.1-.6.3-.8h-4.6V18h9.7c0 1 .8 1.7 1.7 1.7v.8h1.9V17a1 1 0 0 0-.3-.7 1 1 0 0 0-.7-.3H22.5v15.8h5a1.5 1.5 0 0 1-.4-1Z"/><path d="M27.7 26.5v-.1a1.5 1.5 0 0 1-.6-1.3V25c0-.5.3-1 .7-1.3a1.5 1.5 0 0 1-.7-1.3v-.1c0-.5.2-.9.5-1.2a5.8 5.8 0 1 0-.5 6.4c.1-.3.3-.7.6-.9Z"/></g></symbol><symbol viewBox="0 0 10 10" id="icon-department"><g clip-path="url(#icon-department_a)"><path d="M3.516 0v1.165l.001.14H0v4.273h.596v3.88h8.808v-3.88H10V1.304H6.483V0m-.738 1.164v.14h-1.49V.619h1.49v.545Zm2.92 7.556h-7.33V5.578H3v.767h.9v-.767h2.2v.767H7v-.767h1.667V8.72Zm.597-3.882H7v-.766h-.9v.766H3.9v-.766H3v.766H.738V2.025h8.526v2.813h-.002Z"/></g></symbol><symbol viewBox="0 0 48 48" id="icon-dispute"><path d="m26.8 10.5-8.5 12.9 5.6 1.8-2.1 12.6L30.3 23l-5.6-2 2.1-10.6Zm8.7 5.5-2.8-1 1.2-6-5 7.4 3 1-1.2 7 4.8-8.4ZM18 23.5 13 31l2.9 1-1.2 7.1 4.8-8.5-2.8-1 1.2-6Z"/></symbol><symbol viewBox="0 0 40 40" id="icon-down"><path d="M20 25.2 34.7 10l2 2L20 29.3 3 12.4l2-2 15 14.8Z"/></symbol><symbol viewBox="0 0 40 40" id="icon-download"><path fill-rule="evenodd" d="m9.5 17-1.4 1.5 12.5 12 12.2-12.2-1.4-1.4-9.8 9.7V2h-2v24.6l-10-9.5ZM8 38h25l-.1-2H8v2Z" clip-rule="evenodd"/></symbol><symbol viewBox="0 0 19 16" id="icon-email"><path fill-rule="evenodd" d="M3.4 1H15c.6 0 1.2.1 1.7.4L9.8 8.3a1 1 0 0 1-1.2 0L1.8 1.4A3 3 0 0 1 3.4 1ZM6 8.2l1.3 1.3a2.6 2.6 0 0 0 3.7 0l1.4-1.3 5.3 5.4c-.7.9-1.6 1.4-2.8 1.4H3.4c-1 0-2-.5-2.7-1.4L6 8.2Zm-6 3.3v.2L4.8 7 .5 2.6C.2 3.2 0 3.8 0 4.5v7Zm17.8-8.9c.4.6.6 1.2.6 1.9v7.3l-4.8-4.9 4.2-4.3Z" clip-rule="evenodd"/></symbol><symbol viewBox="0 0 40 40" id="icon-external"><path d="M31 26.6h-2.1l-.6-14.4-17.9 18.5L9 29.2l17.8-18.4-14.4.1V9l18-.3.7 18Z"/></symbol><symbol viewBox="0 0 14.002 30" id="icon-facebook"><path d="M7.986 30V14.98h4.956l.783-4.977H7.986V7.507c0-1.299.426-2.539 2.29-2.539h3.726V0H8.713C4.266 0 3.052 2.929 3.052 6.988V10H0v4.98h3.052V30h4.934z"/></symbol><symbol viewBox="0 0 30 30" id="icon-flickr"><path fill-rule="evenodd" d="M21.6 15a3 3 0 0 1-3 2.8c-1.5 0-2.9-1.3-2.9-2.9s1.4-2.9 3-2.9a3 3 0 0 1 3 3Zm-7.5 0a3 3 0 0 1-3 2.8c-1.5 0-2.9-1.3-2.9-2.9s1.4-2.9 3-2.9a3 3 0 0 1 3 3Z" clip-rule="evenodd"/></symbol><symbol viewBox="0 0 10 10" id="icon-globe"><path d="M10.003 5s0-.01-.002-.014a5.002 5.002 0 0 0-1.463-3.522A5.014 5.014 0 0 0 5.009 0h-.015a5.006 5.006 0 0 0-3.53 1.464 5.009 5.009 0 0 0-1.463 3.52L0 5l.001.016A5 5 0 0 0 5 10a5.005 5.005 0 0 0 5-4.985L10.001 5h.002Zm-.663-.324H7.067c-.04-1.484-.346-2.98-.899-3.867A4.355 4.355 0 0 1 9.34 4.675v.002ZM5.004 9.354h-.005c-.574-.004-1.354-1.528-1.417-4.03H6.42c-.063 2.502-.844 4.026-1.417 4.03ZM3.582 4.677C3.645 2.17 4.433.646 5 .646s1.355 1.526 1.418 4.03H3.58h.002Zm-1.66-2.754A4.339 4.339 0 0 1 3.833.809c-.552.887-.858 2.383-.897 3.869H.66a4.347 4.347 0 0 1 1.262-2.754v-.001Zm-1.26 3.4h2.273c.039 1.486.35 2.983.902 3.87a4.346 4.346 0 0 1-3.175-3.87Zm7.416 2.755a4.354 4.354 0 0 1-1.913 1.116c.552-.887.863-2.385.902-3.87H9.34a4.353 4.353 0 0 1-1.262 2.754Z"/></symbol><symbol viewBox="0 0 40 40" id="icon-go_to"><path d="M25.5 19.6 10.2 4.7l2-2 17.3 16.8-16.8 17-2.1-2 14.9-14.9Z"/></symbol><symbol viewBox="0 0 212 400" id="icon-icc"><path d="M60.4 200a298 298 0 0 0 56.7 175.2 197.7 197.7 0 0 0 33-22.8A257.9 257.9 0 0 1 100.5 200c0-56.9 18.4-109.6 49.6-152.4a203.8 203.8 0 0 0-33-22.8A297.6 297.6 0 0 0 60.4 200M20.3 0C13.5 0 6.8.3.3 1v398a221.3 221.3 0 0 0 40 0V1c-6.5-.7-13.2-1-20-1z"/><path d="M120.5 200c0 46.5 32 85.7 75.2 96.8a198 198 0 0 0 16.1-37.5 60 60 0 0 1 0-118.6 198 198 0 0 0-16.1-37.5 100.2 100.2 0 0 0-75.2 96.8z"/></symbol><symbol fill="none" viewBox="0 0 110 68" id="icon-icc-logo-color"><path d="M6.835 20.402H0v27.196h6.835V20.402ZM10.096 34c0-8 5.967-13.993 13.972-13.993 6.552 0 12.488 4.349 13.157 10.144H29.92c-.658-2.175-3.01-3.735-5.852-3.735-4.097 0-7.18 3.267-7.18 7.574 0 4.349 3.083 7.574 7.18 7.574 2.81 0 5.225-1.706 5.852-4.12h7.378c-.972 6.232-6.438 10.55-13.23 10.55C16.063 47.993 10.096 42 10.096 34Zm29.834 0c0-8 5.968-13.993 13.973-13.993 6.552 0 12.488 4.349 13.157 10.144h-7.295c-.658-2.175-3.01-3.735-5.852-3.735-4.096 0-7.18 3.267-7.18 7.574 0 4.349 3.084 7.574 7.18 7.574 2.811 0 5.225-1.706 5.852-4.12h7.378c-.972 6.221-6.437 10.529-13.23 10.529C45.898 47.993 39.931 42 39.931 34Z" fill="#000"/><path d="M80.801 0h-6.834v68H80.8V0Zm13.075 63.776C87.793 55.39 84.209 45.1 84.209 34c0-11.101 3.584-21.39 9.666-29.776l5.623 3.87c-5.309 7.283-8.455 16.24-8.455 25.906a43.782 43.782 0 0 0 8.455 25.906l-5.623 3.87Z" fill="#007DFF"/><path d="M107.261 50.459C99.904 48.565 94.449 41.907 94.449 34s5.455-14.576 12.812-16.459l2.738 6.378c-4.922.738-8.715 4.983-8.715 10.081 0 5.108 3.793 9.353 8.715 10.081l-2.738 6.378Z" fill="#007DFF"/></symbol><symbol fill="none" viewBox="0 0 98 60" id="icon-icc-logo-white"><path d="M6.03 18.002H0v23.996h6.03V18.002ZM8.908 30c0-7.06 5.265-12.347 12.329-12.347 5.781 0 11.018 3.837 11.609 8.95H26.4c-.58-1.918-2.655-3.295-5.163-3.295-3.615 0-6.335 2.882-6.335 6.683 0 3.837 2.72 6.683 6.335 6.683 2.48 0 4.61-1.506 5.163-3.635h6.51c-.857 5.498-5.68 9.308-11.673 9.308-7.064 0-12.329-5.288-12.329-12.347Zm26.324 0c0-7.06 5.266-12.347 12.329-12.347 5.781 0 11.019 3.837 11.609 8.95h-6.436c-.581-1.918-2.656-3.295-5.164-3.295-3.615 0-6.335 2.882-6.335 6.683 0 3.837 2.72 6.683 6.335 6.683 2.48 0 4.61-1.506 5.164-3.635h6.51c-.858 5.49-5.68 9.29-11.674 9.29-7.072.018-12.338-5.27-12.338-12.329ZM71.296 0h-6.03v60h6.03V0Zm11.535 56.273c-5.367-7.4-8.53-16.478-8.53-26.273 0-9.795 3.163-18.874 8.53-26.273l4.96 3.415c-4.683 6.426-7.459 14.33-7.459 22.858a38.632 38.632 0 0 0 7.46 22.858l-4.96 3.415Z" fill="#fff"/><path d="M94.643 44.523C88.15 42.852 83.338 36.977 83.338 30c0-6.977 4.813-12.861 11.305-14.523l2.416 5.628c-4.343.651-7.69 4.397-7.69 8.895 0 4.507 3.347 8.253 7.69 8.895l-2.416 5.628Z" fill="#fff"/></symbol><symbol viewBox="0 0 32 32" id="icon-instagram"><path d="M16 2.881c4.275 0 4.781.019 6.462.094 1.563.069 2.406.331 2.969.55a4.952 4.952 0 0 1 1.837 1.194 5.015 5.015 0 0 1 1.2 1.838c.219.563.481 1.412.55 2.969.075 1.688.094 2.194.094 6.463s-.019 4.781-.094 6.463c-.069 1.563-.331 2.406-.55 2.969a4.94 4.94 0 0 1-1.194 1.837 5.02 5.02 0 0 1-1.837 1.2c-.563.219-1.413.481-2.969.55-1.688.075-2.194.094-6.463.094s-4.781-.019-6.463-.094c-1.563-.069-2.406-.331-2.969-.55a4.952 4.952 0 0 1-1.838-1.194 5.02 5.02 0 0 1-1.2-1.837c-.219-.563-.481-1.413-.55-2.969-.075-1.688-.094-2.194-.094-6.463s.019-4.781.094-6.463c.069-1.563.331-2.406.55-2.969a4.964 4.964 0 0 1 1.194-1.838 5.015 5.015 0 0 1 1.838-1.2c.563-.219 1.412-.481 2.969-.55 1.681-.075 2.188-.094 6.463-.094zM16 0c-4.344 0-4.887.019-6.594.094-1.7.075-2.869.35-3.881.744-1.056.412-1.95.956-2.837 1.85a7.833 7.833 0 0 0-1.85 2.831C.444 6.538.169 7.7.094 9.4.019 11.113 0 11.656 0 16s.019 4.887.094 6.594c.075 1.7.35 2.869.744 3.881.413 1.056.956 1.95 1.85 2.837a7.82 7.82 0 0 0 2.831 1.844c1.019.394 2.181.669 3.881.744 1.706.075 2.25.094 6.594.094s4.888-.019 6.594-.094c1.7-.075 2.869-.35 3.881-.744 1.05-.406 1.944-.956 2.831-1.844s1.438-1.781 1.844-2.831c.394-1.019.669-2.181.744-3.881.075-1.706.094-2.25.094-6.594s-.019-4.887-.094-6.594c-.075-1.7-.35-2.869-.744-3.881a7.506 7.506 0 0 0-1.831-2.844A7.82 7.82 0 0 0 26.482.843C25.463.449 24.301.174 22.601.099c-1.712-.081-2.256-.1-6.6-.1z"/><path d="M16 7.781c-4.537 0-8.219 3.681-8.219 8.219s3.681 8.219 8.219 8.219 8.219-3.681 8.219-8.219A8.221 8.221 0 0 0 16 7.781zm0 13.55a5.331 5.331 0 1 1 0-10.663 5.331 5.331 0 0 1 0 10.663zM26.462 7.456a1.919 1.919 0 1 1-3.838 0 1.919 1.919 0 0 1 3.838 0z"/></symbol><symbol viewBox="0 0 32 32" id="icon-linkedin"><path d="M12 12h5.535v2.837h.079c.77-1.381 2.655-2.837 5.464-2.837C28.92 12 30 15.637 30 20.367V30h-5.769v-8.54c0-2.037-.042-4.657-3.001-4.657-3.005 0-3.463 2.218-3.463 4.509V30H12V12zM2 12h6v18H2V12zm6-5a3 3 0 1 1-6 0 3 3 0 0 1 6 0z"/></symbol><symbol viewBox="0 0 40 40" id="icon-more"><path d="M36 19H21l-.2-14.8h-2l.2 14.9-14.8-.3v2L19 21v15h2V21h15v-2Z"/></symbol><symbol viewBox="0 0 10 12" id="icon-pin"><path d="M4.642 6.678a1.976 1.976 0 0 1-1.976-1.973c0-1.09.883-1.974 1.973-1.976a1.975 1.975 0 0 1 .003 3.947v.002Zm0-3.314a1.342 1.342 0 1 0 1.34 1.343v-.003c0-.74-.6-1.339-1.34-1.34Z"/><path d="M4.642 12a.317.317 0 0 1-.193-.066A12.726 12.726 0 0 1 .354 6.55a4.933 4.933 0 0 1 .081-3.86A4.503 4.503 0 0 1 3.06.267a4.821 4.821 0 0 1 3.164 0A4.506 4.506 0 0 1 8.85 2.691a4.933 4.933 0 0 1 .08 3.86 12.726 12.726 0 0 1-4.094 5.382.318.318 0 0 1-.194.067Zm0-11.369c-.467 0-.93.08-1.372.234a3.879 3.879 0 0 0-2.26 2.087 4.296 4.296 0 0 0-.069 3.364 12.086 12.086 0 0 0 3.7 4.966 12.086 12.086 0 0 0 3.701-4.966 4.303 4.303 0 0 0-.061-3.364A3.879 3.879 0 0 0 6.013.865 4.138 4.138 0 0 0 4.642.631Z"/></symbol><symbol viewBox="0 0 48 48" id="icon-procedure"><path fill-rule="evenodd" d="M37.1 27.9c.4.3.7.8 1 1.2a2 2 0 0 0 .9 3.4 6.5 6.5 0 0 1-.2 1.6 2 2 0 0 0-1.8 1 2 2 0 0 0 0 2 6.5 6.5 0 0 1-1.2 1 2 2 0 0 0-3.4.9 6.5 6.5 0 0 1-1.6-.2 2 2 0 0 0-1-1.8 2 2 0 0 0-2 0 6.6 6.6 0 0 1-1-1.2 2 2 0 0 0-.9-3.4 6.6 6.6 0 0 1 .2-1.6 2 2 0 0 0 1.8-1 2 2 0 0 0 0-2 6.7 6.7 0 0 1 1.2-1 2 2 0 0 0 3.4-.9 6.5 6.5 0 0 1 1.6.2 2 2 0 0 0 1 1.8 2 2 0 0 0 2 0ZM22.4 9c.9.2 1.7.6 2.4 1a3.3 3.3 0 0 0 .8 3.3 3.3 3.3 0 0 0 3.4.8l1 2.5a3.3 3.3 0 0 0 0 5.8 11 11 0 0 1-1 2.4 3.3 3.3 0 0 0-3.4.8 3.3 3.3 0 0 0-.8 3.4l-2.4 1a3.3 3.3 0 0 0-5.8 0 11 11 0 0 1-2.5-1 3.3 3.3 0 0 0-.8-3.4 3.3 3.3 0 0 0-3.3-.8 10.7 10.7 0 0 1-1-2.4 3.3 3.3 0 0 0 0-5.8 11 11 0 0 1 1-2.5 3.3 3.3 0 0 0 3.3-.8 3.3 3.3 0 0 0 .8-3.3 11 11 0 0 1 2.5-1 3.3 3.3 0 0 0 5.8 0Zm-3 5.5a5 5 0 0 1 5 5 5 5 0 0 1-5 5 5 5 0 0 1-4.9-5 5 5 0 0 1 5-5ZM34 29.9a3 3 0 1 1-3 5.1 3 3 0 1 1 3-5.1Z" clip-rule="evenodd"/></symbol><symbol viewBox="0 0 40 40" id="icon-reset"><path d="M20 5a14.9 14.9 0 0 0-12.5 6.8V8.3H5v8.4h8.3v-2.5H9A12.5 12.5 0 1 1 7.5 20H5A15 15 0 1 0 20 5Z"/></symbol><symbol viewBox="0 0 17 18" id="icon-search"><path d="m16.8 16-4.9-5a6.4 6.4 0 0 0-.6-8.3 6.4 6.4 0 0 0-9 0 6.4 6.4 0 0 0 0 9 6.4 6.4 0 0 0 4.5 2 6.4 6.4 0 0 0 3.8-1.4l4.9 5 1.3-1.4ZM3.5 10.4a4.6 4.6 0 0 1 0-6.6 4.6 4.6 0 0 1 3.3-1.3C8 2.6 9 3 10 3.9a4.6 4.6 0 0 1 1.4 3.3 4.6 4.6 0 0 1-1.4 3.3 4.6 4.6 0 0 1-3.2 1.3 4.6 4.6 0 0 1-3.3-1.3Z"/></symbol><symbol viewBox="0 0 21 10" id="icon-smile"><path d="M0 1.7C1.2 6.4 5.4 10 10.4 10s9.2-3.5 10.4-8.2l-4-1.7c-.5 3.1-3.2 5.5-6.4 5.5S4.4 3.1 4 0L0 1.7Z"/></symbol><symbol viewBox="0 0 25 24" id="icon-taxonomy"><path fill-rule="evenodd" d="M13.7 24h-2.4V0h2.4v24Zm6.5-21.1-2-1.4a17.9 17.9 0 0 0 0 21l2-1.4a15.5 15.5 0 0 1 0-18.2ZM21 12c0-1.8 1.3-3.3 3-3.6l-1-2.2a6 6 0 0 0 0 11.6l1-2.2c-1.7-.3-3-1.8-3-3.6ZM4.7 2.9a15.5 15.5 0 0 1 0 18.2l2 1.4a17.9 17.9 0 0 0 0-21l-2 1.4ZM2 6.2a6 6 0 0 1 0 11.6l-1-2.2a3.6 3.6 0 0 0 0-7.2l1-2.2Z" clip-rule="evenodd"/></symbol><symbol viewBox="0 0 32 32" id="icon-twitter"><path d="M25.282 2h4.905l-10.77 12.263L32 30.897h-9.874l-7.73-10.109-8.851 10.109H.64l11.41-13.116L0 2h10.12l6.984 9.234L25.282 2Zm-1.716 26.018h2.719L8.69 4.772H5.77l17.796 23.246Z"/></symbol><symbol viewBox="0 0 40 40" id="icon-up"><path d="m19.9 14-15 15.2-2-2 17-17.2 17 16.9-2 2-15-14.8Z"/></symbol><symbol viewBox="0 0 32 32" id="icon-youtube"><path d="M31.681 9.6s-.313-2.206-1.275-3.175C29.187 5.15 27.825 5.144 27.2 5.069c-4.475-.325-11.194-.325-11.194-.325h-.012s-6.719 0-11.194.325c-.625.075-1.987.081-3.206 1.356C.631 7.394.325 9.6.325 9.6s-.319 2.588-.319 5.181v2.425c0 2.587.319 5.181.319 5.181s.313 2.206 1.269 3.175c1.219 1.275 2.819 1.231 3.531 1.369 2.563.244 10.881.319 10.881.319s6.725-.012 11.2-.331c.625-.075 1.988-.081 3.206-1.356.962-.969 1.275-3.175 1.275-3.175s.319-2.587.319-5.181v-2.425c-.006-2.588-.325-5.181-.325-5.181zM12.694 20.15v-8.994l8.644 4.513-8.644 4.481z"/></symbol><clipPath id="icon-contract_a"><path transform="translate(.78)" d="M0 0h8.442v10H0z"/></clipPath><clipPath id="icon-currency_a"><path d="M9 16h30v15.8H9z"/></clipPath><clipPath id="icon-department_a"><path d="M0 0h10v9.457H0z"/></clipPath></defs></svg>