<?xml version="1.0" encoding="utf-8"?>
<!-- Generator: Adobe Illustrator 27.0.0, SVG Export Plug-In . SVG Version: 6.00 Build 0)  -->
<svg version="1.1" id="Слой_1" xmlns="http://www.w3.org/2000/svg" xmlns:xlink="http://www.w3.org/1999/xlink" x="0px" y="0px"
	 viewBox="0 0 631.5 226.7" style="enable-background:new 0 0 631.5 226.7;" xml:space="preserve">
<style type="text/css">
	.st0{fill:#007DFE;}
	.st1{fill:#143F8D;}
	.st2{fill:#113D8C;}
</style>
<path class="st0" d="M120.5,178.2c-2.9,1.5-5.8,2.6-8.8,3.4c-2.7,0.7-5.4,1.2-8.1,1.4c-9.5,0.6-18.4-1.8-27-5.8
	c-13.5-6.2-23.1-16.5-30-29.4c-5.5-10.1-8.6-21-9.4-32.5C35.8,96.4,40,78.9,50.6,63c9.3-13.9,22.1-23.2,38.5-27
	c5.2-1.2,10.5-1.8,15.8-1.9c9.3-0.2,18.7-0.1,28.1-0.1c0.2,0,0.4,0,0.7,0.1c-3.5,1.1-6.9,2.3-10.1,3.9
	c-10.9,5.4-19.5,13.3-26.4,23.3c-9,13.2-14,27.8-14.6,43.8c-0.9,22.8,6.2,42.9,21.5,60C108.5,170,110.7,171.6,120.5,178.2z"/>
<path class="st0" d="M157.1,152.5c1.3-1.3,2.6-2.6,3.9-4c17.9-18.5,33.3-39,46-61.3c5.5-9.7,9.9-19.9,12.4-30.8
	c0.3-1.2,0.1-1.6-1.2-1.9c-3.9-0.8-7.8-1.7-11.7-2.6c-0.3-0.1-0.6,0-0.8-0.4c2.1-1.3,4.3-2.6,6.4-3.9c11.4-7,22.8-14,34.2-21
	c0.6-0.4,1-0.5,1.5,0.2c9.8,13.3,19.7,26.6,29.6,39.8c0.1,0.2,0.2,0.3,0.5,0.7c-2.3-0.5-4.4-0.9-6.5-1.4c-2.6-0.6-5.2-1.1-7.8-1.7
	c-0.6-0.1-0.9,0-1.1,0.6C258.4,77.1,252,88.2,245,99.1c-10.8,16.9-23.1,32.6-37,47.1c-2,2.1-4.1,4.1-6.1,6.2c-0.6,0.6-1.2,0.9-2,0.8
	c-10.3-0.5-20.6,0-30.9-0.2c-3.7-0.1-7.4,0.1-11-0.3C157.7,152.7,157.4,152.9,157.1,152.5z"/>
<path class="st1" d="M183.1,119.7c-2.2-5.3-4.4-10.4-6.8-15.4c-6.6-13.9-13.9-27.4-23-39.8c-6.6-8.9-14-17.2-23.1-23.6
	c-1.1-0.7-2.2-1.4-3.4-2.3c2.7-1.2,5.3-2.1,8.1-2.8c13.1-3.4,25.3-0.8,36.9,5.6c9.3,5.1,16.8,12.3,23.5,20.4
	c4.7,5.6,8.8,11.6,12.6,17.7c0.4,0.6,0.5,1.1,0.1,1.7c-7.1,13.4-15.4,25.9-24.5,38C183.4,119.4,183.3,119.5,183.1,119.7z"/>
<path class="st1" d="M114.9,183.4c0.3-0.2,0.4-0.3,0.6-0.4c9.2-3.3,17.2-8.8,24.7-14.9c4.8-3.9,9.3-8,13.7-12.3
	c0.9-0.9,1.9-1.3,3.2-1.2c7.8,0.5,15.7,0.4,23.5,0.4c4.6,0,9.2-0.1,13.8-0.1c1.3,0,2.6,0.1,4.2,0.2c-2.2,2-4.3,3.9-6.4,5.7
	c-6.7,5.9-13.7,11.4-21.7,15.7c-6.4,3.5-13.2,6-20.5,6.4C138.4,183.8,126.8,183.4,114.9,183.4z"/>
<g>
	<g>
		<path class="st2" d="M306.3,78.9v1.9c0,3.5-1.1,6.3-3.4,8.5c-2.2,2.2-5.1,3.3-8.7,3.3c-3.8,0-6.9-1.2-9.4-3.7
			c-2.5-2.5-3.7-5.5-3.7-9c0-3.6,1.2-6.6,3.7-9.1c2.5-2.5,5.5-3.7,9.1-3.7c2.3,0,4.4,0.5,6.3,1.6c1.9,1,3.4,2.4,4.4,4.1l-4.1,2.4
			c-0.6-1-1.5-1.8-2.6-2.4c-1.2-0.6-2.5-0.9-3.9-0.9c-2.3,0-4.2,0.8-5.8,2.3c-1.5,1.5-2.3,3.5-2.3,5.8c0,2.3,0.8,4.2,2.3,5.7
			c1.5,1.5,3.5,2.3,6.1,2.3c1.9,0,3.4-0.4,4.6-1.2c1.2-0.8,2.1-2,2.5-3.4H294v-4.3H306.3z"/>
		<path class="st2" d="M314.5,87.4h9.3V92h-14.2V67.5h4.8V87.4z"/>
		<path class="st2" d="M345.7,88.8c-2.5,2.5-5.5,3.7-9,3.7c-3.5,0-6.5-1.2-9-3.7c-2.5-2.5-3.7-5.5-3.7-9s1.2-6.6,3.7-9
			c2.5-2.5,5.5-3.7,9-3.7c3.5,0,6.6,1.2,9,3.7c2.5,2.5,3.7,5.5,3.7,9S348.2,86.3,345.7,88.8z M331.1,85.5c1.5,1.5,3.4,2.3,5.6,2.3
			c2.2,0,4.1-0.8,5.6-2.3c1.5-1.5,2.3-3.4,2.3-5.8s-0.8-4.3-2.3-5.8c-1.5-1.5-3.4-2.3-5.6-2.3c-2.2,0-4.1,0.8-5.6,2.3
			c-1.5,1.5-2.3,3.4-2.3,5.8S329.5,84,331.1,85.5z"/>
		<path class="st2" d="M367.6,79.3c2.1,1.2,3.2,3.1,3.2,5.6c0,2.1-0.7,3.8-2.2,5.1c-1.5,1.3-3.3,2-5.4,2h-10.4V67.5h9.7
			c2.1,0,3.9,0.6,5.3,1.9c1.4,1.3,2.2,2.9,2.2,4.9C369.9,76.4,369.1,78.1,367.6,79.3z M362.5,72h-4.8v5.4h4.8c0.7,0,1.4-0.3,1.9-0.8
			c0.5-0.5,0.8-1.2,0.8-1.9s-0.2-1.4-0.7-1.9C363.9,72.3,363.2,72,362.5,72z M363.2,87.5c0.8,0,1.5-0.3,2-0.8
			c0.5-0.5,0.8-1.2,0.8-2.1c0-0.8-0.3-1.5-0.8-2c-0.5-0.5-1.2-0.8-2-0.8h-5.6v5.8H363.2z"/>
		<path class="st2" d="M389.7,92l-1.5-4.4h-9.8L377,92h-5.2l8.6-24.5h6L395,92H389.7z M380,83.1h6.7l-3.4-10L380,83.1z"/>
		<path class="st2" d="M402.2,87.4h9.3V92h-14.2V67.5h4.8V87.4z"/>
		<path class="st2" d="M259.1,129.4h10.3v4.6h-15.1v-24.5h15v4.6h-10.1v5.2h9.3v4.5h-9.3V129.4z"/>
		<path class="st2" d="M287,109.5h4.8V134h-3.7l-10.5-15v15h-4.8v-24.5h3.7l10.5,14.9V109.5z"/>
		<path class="st2" d="M312.6,109.5v4.6h-6.6V134h-4.8v-19.9h-6.6v-4.6H312.6z"/>
		<path class="st2" d="M328.7,134l-4.9-8.5h-3.7v8.5h-4.8v-24.5h9.8c2.3,0,4.2,0.8,5.8,2.4s2.4,3.5,2.4,5.7c0,1.5-0.4,2.9-1.3,4.2
			c-0.9,1.3-2,2.3-3.4,2.9l5.4,9.2H328.7z M320.1,114v7.2h5c0.9,0,1.7-0.4,2.3-1.1c0.7-0.7,1-1.6,1-2.6c0-1-0.3-1.9-1-2.6
			c-0.7-0.7-1.4-1-2.3-1H320.1z"/>
		<path class="st2" d="M341.6,129.4h10.3v4.6h-15.1v-24.5h15v4.6h-10.1v5.2h9.3v4.5h-9.3V129.4z"/>
		<path class="st2" d="M364.4,109.5c2.4,0,4.3,0.8,5.9,2.4s2.4,3.5,2.4,5.8c0,2.3-0.8,4.3-2.4,5.8s-3.6,2.4-5.9,2.4h-4.3v8h-4.8
			v-24.5H364.4z M364.4,121.4c1,0,1.9-0.4,2.6-1.1c0.7-0.7,1-1.6,1-2.6c0-1.1-0.3-2-1-2.7c-0.7-0.7-1.5-1-2.6-1h-4.3v7.4H364.4z"/>
		<path class="st2" d="M389.3,134l-4.9-8.5h-3.7v8.5h-4.8v-24.5h9.8c2.3,0,4.2,0.8,5.8,2.4s2.4,3.5,2.4,5.7c0,1.5-0.4,2.9-1.3,4.2
			c-0.9,1.3-2,2.3-3.4,2.9l5.4,9.2H389.3z M380.7,114v7.2h5c0.9,0,1.7-0.4,2.3-1.1c0.7-0.7,1-1.6,1-2.6c0-1-0.3-1.9-1-2.6
			c-0.7-0.7-1.4-1-2.3-1H380.7z"/>
		<path class="st2" d="M402.2,129.4h10.3v4.6h-15.1v-24.5h15v4.6h-10.1v5.2h9.3v4.5h-9.3V129.4z"/>
		<path class="st2" d="M430.1,109.5h4.8V134h-3.7l-10.5-15v15h-4.8v-24.5h3.7l10.5,14.9V109.5z"/>
		<path class="st2" d="M444.3,129.4h10.3v4.6h-15.1v-24.5h15v4.6h-10.1v5.2h9.3v4.5h-9.3V129.4z"/>
		<path class="st2" d="M467.1,134.5c-2.7,0-5-0.8-6.7-2.3s-2.6-3.6-2.6-6.2v-16.5h4.8v16.1c0,1.3,0.4,2.3,1.1,3
			c0.7,0.7,1.9,1.1,3.4,1.1s2.7-0.4,3.4-1.1c0.7-0.7,1.1-1.8,1.1-3v-16.1h4.8V126c0,2.6-0.9,4.7-2.6,6.2S469.9,134.5,467.1,134.5z"
			/>
		<path class="st2" d="M494.3,134l-4.9-8.5h-3.7v8.5h-4.8v-24.5h9.8c2.3,0,4.2,0.8,5.8,2.4s2.4,3.5,2.4,5.7c0,1.5-0.4,2.9-1.3,4.2
			c-0.9,1.3-2,2.3-3.4,2.9l5.4,9.2H494.3z M485.7,114v7.2h5c0.9,0,1.7-0.4,2.3-1.1c0.7-0.7,1-1.6,1-2.6c0-1-0.3-1.9-1-2.6
			c-0.7-0.7-1.4-1-2.3-1H485.7z"/>
		<path class="st2" d="M241.6,174.6l-3.8,2.2l-2.2-2.4c-1.9,1.4-4.1,2.1-6.6,2.1c-2.5,0-4.6-0.7-6.2-2c-1.6-1.3-2.4-3.1-2.4-5.3
			c0-1.4,0.3-2.8,1-4c0.7-1.2,1.7-2.2,3-3c-0.8-1.3-1.2-2.6-1.2-4.1c0-2.1,0.7-3.8,2.2-5.1c1.4-1.3,3.3-2,5.5-2
			c1.7,0,3.3,0.4,4.7,1.3c1.4,0.9,2.4,2.2,3.1,3.9l-4.1,2.4c-0.7-2-1.9-2.9-3.6-2.9c-0.8,0-1.5,0.2-2.1,0.7
			c-0.5,0.5-0.8,1.1-0.8,1.9c0,0.7,0.2,1.2,0.5,1.8c0.3,0.5,0.8,1.2,1.5,1.9l5.2,5.7c0.5-1.1,0.9-2.4,1.2-4.1l4.1,2.3
			c-0.4,1.9-1.2,3.6-2.1,5.1L241.6,174.6z M229.2,172c1.2,0,2.3-0.3,3.3-0.9l-5.3-5.7c0,0-0.1-0.1-0.1-0.1c-1.3,0.8-1.9,1.9-1.9,3.4
			c0,1,0.3,1.8,1,2.4C226.9,171.7,227.9,172,229.2,172z"/>
		<path class="st2" d="M253.3,151.5h4.8V176h-4.8V151.5z"/>
		<path class="st2" d="M276.9,151.5h4.8V176H278l-10.5-15v15h-4.8v-24.5h3.7l10.5,14.9V151.5z"/>
		<path class="st2" d="M300.4,151.5h4.8V176h-3.7l-10.5-15v15h-4.8v-24.5h3.7l10.5,14.9V151.5z"/>
		<path class="st2" d="M330.4,172.8c-2.5,2.5-5.5,3.7-9,3.7c-3.5,0-6.5-1.2-9-3.7c-2.5-2.5-3.7-5.5-3.7-9s1.2-6.6,3.7-9
			c2.5-2.5,5.5-3.7,9-3.7c3.5,0,6.6,1.2,9,3.7c2.5,2.5,3.7,5.5,3.7,9S332.9,170.3,330.4,172.8z M315.7,169.5
			c1.5,1.5,3.4,2.3,5.6,2.3c2.2,0,4.1-0.8,5.6-2.3c1.5-1.5,2.3-3.4,2.3-5.8s-0.8-4.3-2.3-5.8c-1.5-1.5-3.4-2.3-5.6-2.3
			c-2.2,0-4.1,0.8-5.6,2.3c-1.5,1.5-2.3,3.4-2.3,5.8S314.2,168,315.7,169.5z"/>
		<path class="st2" d="M342.5,176l-8.2-24.5h5.2l6,18.8l5.9-18.8h5.3l-8.3,24.5H342.5z"/>
		<path class="st2" d="M373.4,176l-1.5-4.4h-9.8l-1.5,4.4h-5.2l8.6-24.5h6l8.6,24.5H373.4z M363.7,167h6.7l-3.4-10L363.7,167z"/>
		<path class="st2" d="M395.4,151.5v4.6h-6.6V176H384v-19.9h-6.6v-4.6H395.4z"/>
		<path class="st2" d="M417.3,172.8c-2.5,2.5-5.5,3.7-9,3.7c-3.5,0-6.5-1.2-9-3.7c-2.5-2.5-3.7-5.5-3.7-9s1.2-6.6,3.7-9
			c2.5-2.5,5.5-3.7,9-3.7c3.5,0,6.6,1.2,9,3.7c2.5,2.5,3.7,5.5,3.7,9S419.8,170.3,417.3,172.8z M402.7,169.5
			c1.5,1.5,3.4,2.3,5.6,2.3c2.2,0,4.1-0.8,5.6-2.3c1.5-1.5,2.3-3.4,2.3-5.8s-0.8-4.3-2.3-5.8c-1.5-1.5-3.4-2.3-5.6-2.3
			c-2.2,0-4.1,0.8-5.6,2.3c-1.5,1.5-2.3,3.4-2.3,5.8S401.1,168,402.7,169.5z"/>
		<path class="st2" d="M437.8,176l-4.9-8.5h-3.7v8.5h-4.8v-24.5h9.8c2.3,0,4.2,0.8,5.8,2.4s2.4,3.5,2.4,5.7c0,1.5-0.4,2.9-1.3,4.2
			c-0.9,1.3-2,2.3-3.4,2.9l5.4,9.2H437.8z M429.2,156v7.2h5c0.9,0,1.7-0.4,2.3-1.1c0.7-0.7,1-1.6,1-2.6c0-1-0.3-1.9-1-2.6
			c-0.7-0.7-1.4-1-2.3-1H429.2z"/>
		<path class="st2" d="M470.4,176l-1.5-4.4h-9.8l-1.5,4.4h-5.2l8.6-24.5h6l8.6,24.5H470.4z M460.7,167h6.7l-3.4-10L460.7,167z"/>
		<path class="st2" d="M481.7,176l-6.9-24.5h5.1l4.7,18.2l5.1-18.2h4.1l5.1,18.2l4.7-18.2h5.1l-6.9,24.5h-5.5l-4.6-16.2l-4.6,16.2
			H481.7z"/>
		<path class="st2" d="M525.9,176l-1.5-4.4h-9.8l-1.5,4.4H508l8.6-24.5h6l8.6,24.5H525.9z M516.2,167h6.7l-3.4-10L516.2,167z"/>
		<path class="st2" d="M547,176l-4.9-8.5h-3.7v8.5h-4.8v-24.5h9.8c2.3,0,4.2,0.8,5.8,2.4s2.4,3.5,2.4,5.7c0,1.5-0.4,2.9-1.3,4.2
			c-0.9,1.3-2,2.3-3.4,2.9l5.4,9.2H547z M538.3,156v7.2h5c0.9,0,1.7-0.4,2.3-1.1c0.7-0.7,1-1.6,1-2.6c0-1-0.3-1.9-1-2.6
			c-0.7-0.7-1.4-1-2.3-1H538.3z"/>
		<path class="st2" d="M564.7,151.5c3.4,0,6.2,1.2,8.4,3.5c2.2,2.4,3.4,5.3,3.4,8.7s-1.1,6.4-3.4,8.7c-2.3,2.4-5.1,3.5-8.4,3.5H555
			v-24.5H564.7z M564.7,171.3c2.1,0,3.8-0.7,5.2-2.1s2-3.2,2-5.5s-0.7-4.1-2-5.5c-1.3-1.4-3.1-2.1-5.2-2.1h-4.9v15.3H564.7z"/>
		<path class="st2" d="M587.4,176.4c-2.4,0-4.5-0.5-6.1-1.6c-1.7-1.1-2.8-2.6-3.5-4.4l4.1-2.4c1,2.5,2.8,3.7,5.6,3.7
			c1.4,0,2.3-0.2,3-0.7c0.6-0.5,0.9-1.1,0.9-1.9c0-0.9-0.4-1.5-1.2-2c-0.8-0.5-2.1-1-4.1-1.6c-1.1-0.3-2-0.7-2.8-1
			c-0.8-0.3-1.5-0.8-2.3-1.3c-0.8-0.5-1.3-1.2-1.7-2.1c-0.4-0.8-0.6-1.8-0.6-2.9c0-2.2,0.8-4,2.4-5.3c1.6-1.3,3.5-2,5.7-2
			c2,0,3.7,0.5,5.2,1.5c1.5,1,2.7,2.3,3.5,4l-4.1,2.3c-1-2.1-2.5-3.1-4.7-3.1c-1,0-1.8,0.2-2.4,0.7c-0.6,0.5-0.9,1-0.9,1.8
			c0,0.8,0.3,1.4,1,1.9c0.6,0.5,1.9,1,3.7,1.6c0.7,0.2,1.3,0.4,1.7,0.5c0.4,0.1,0.9,0.3,1.6,0.6c0.7,0.3,1.2,0.5,1.5,0.8
			c0.4,0.2,0.8,0.5,1.2,0.9c0.5,0.4,0.8,0.8,1.1,1.2c0.2,0.4,0.5,0.9,0.6,1.5s0.3,1.2,0.3,1.9c0,2.3-0.8,4.1-2.5,5.4
			C592.2,175.8,590.1,176.4,587.4,176.4z"/>
	</g>
</g>
</svg>
