<?xml version="1.0" encoding="utf-8"?>
<!-- Generator: Adobe Illustrator 27.0.0, SVG Export Plug-In . SVG Version: 6.00 Build 0)  -->
<svg version="1.1" id="Слой_1" xmlns="http://www.w3.org/2000/svg" xmlns:xlink="http://www.w3.org/1999/xlink" x="0px" y="0px"
	 viewBox="0 0 267.6 226.7" style="enable-background:new 0 0 267.6 226.7;" xml:space="preserve">
<style type="text/css">
	.st0{fill:#fff;}
	.st1{fill:#fff;}
</style>
<path class="st0" d="M101.5,178.2c-2.9,1.5-5.8,2.6-8.8,3.4c-2.7,0.7-5.4,1.2-8.1,1.4c-9.5,0.6-18.4-1.8-27-5.8
	c-13.5-6.2-23.1-16.5-30-29.4c-5.5-10.1-8.6-21-9.4-32.5C16.8,96.4,21,78.9,31.6,63C41,49.1,53.7,39.8,70.2,36
	c5.2-1.2,10.5-1.8,15.8-1.9c9.3-0.2,18.7-0.1,28.1-0.1c0.2,0,0.4,0,0.7,0.1c-3.5,1.1-6.9,2.3-10.1,3.9C93.6,43.3,85,51.2,78.2,61.2
	c-9,13.2-14,27.8-14.6,43.8c-0.9,22.8,6.2,42.9,21.5,60C89.5,170,91.7,171.6,101.5,178.2z"/>
<path class="st0" d="M138.2,152.5c1.3-1.3,2.6-2.6,3.9-4c17.9-18.5,33.3-39,46-61.3c5.5-9.7,9.9-19.9,12.4-30.8
	c0.3-1.2,0.1-1.6-1.2-1.9c-3.9-0.8-7.8-1.7-11.7-2.6c-0.3-0.1-0.6,0-0.8-0.4c2.1-1.3,4.3-2.6,6.4-3.9c11.4-7,22.8-14,34.2-21
	c0.6-0.4,1-0.5,1.5,0.2c9.8,13.3,19.7,26.6,29.6,39.8c0.1,0.2,0.2,0.3,0.5,0.7c-2.3-0.5-4.4-0.9-6.5-1.4c-2.6-0.6-5.2-1.1-7.8-1.7
	c-0.6-0.1-0.9,0-1.1,0.6C239.5,77.1,233,88.2,226,99.1c-10.8,16.9-23.1,32.6-37,47.1c-2,2.1-4.1,4.1-6.1,6.2c-0.6,0.6-1.2,0.9-2,0.8
	c-10.3-0.5-20.6,0-30.9-0.2c-3.7-0.1-7.4,0.1-11-0.3C138.7,152.7,138.4,152.9,138.2,152.5z"/>
<path class="st1" d="M164.1,119.7c-2.2-5.3-4.4-10.4-6.8-15.4c-6.6-13.9-13.9-27.4-23-39.8c-6.6-8.9-14-17.2-23.1-23.6
	c-1.1-0.7-2.2-1.4-3.4-2.3c2.7-1.2,5.3-2.1,8.1-2.8c13.1-3.4,25.3-0.8,36.9,5.6c9.3,5.1,16.8,12.3,23.5,20.4
	c4.7,5.6,8.8,11.6,12.6,17.7c0.4,0.6,0.5,1.1,0.1,1.7c-7.1,13.4-15.4,25.9-24.5,38C164.4,119.4,164.3,119.5,164.1,119.7z"/>
<path class="st1" d="M96,183.4c0.3-0.2,0.4-0.3,0.6-0.4c9.2-3.3,17.2-8.8,24.7-14.9c4.8-3.9,9.3-8,13.7-12.3
	c0.9-0.9,1.9-1.3,3.2-1.2c7.8,0.5,15.7,0.4,23.5,0.4c4.6,0,9.2-0.1,13.8-0.1c1.3,0,2.6,0.1,4.2,0.2c-2.2,2-4.3,3.9-6.4,5.7
	c-6.7,5.9-13.7,11.4-21.7,15.7c-6.4,3.5-13.2,6-20.5,6.4C119.5,183.8,107.8,183.4,96,183.4z"/>
</svg>
